<mxfile host="Electron" modified="2024-02-05T17:32:31.405Z" agent="Mozilla/5.0 (X11; Linux x86_64) AppleWebKit/537.36 (KHTML, like Gecko) draw.io/23.0.2 Chrome/120.0.6099.109 Electron/28.1.0 Safari/537.36" etag="HKfJrRLK5Z24ncisV3uy" version="23.0.2" type="device">
  <diagram name="Page-1" id="edf60f1a-56cd-e834-aa8a-f176f3a09ee4">
    <mxGraphModel dx="1638" dy="878" grid="1" gridSize="10" guides="1" tooltips="1" connect="1" arrows="1" fold="1" page="1" pageScale="1" pageWidth="1100" pageHeight="850" background="none" math="0" shadow="0">
      <root>
        <mxCell id="0" />
        <mxCell id="1" parent="0" />
        <mxCell id="kHhAgr1HZG3S3bv46wJ8-169" value="" style="group" vertex="1" connectable="0" parent="1">
          <mxGeometry x="60" y="10" width="260" height="691" as="geometry" />
        </mxCell>
        <mxCell id="kHhAgr1HZG3S3bv46wJ8-13" value="Iteration algorithm" style="text;strokeColor=none;fillColor=none;align=left;verticalAlign=middle;spacingLeft=4;spacingRight=4;overflow=hidden;points=[[0,0.5],[1,0.5]];portConstraint=eastwest;rotatable=1;whiteSpace=wrap;html=1;movable=1;resizable=1;deletable=1;editable=1;locked=0;connectable=1;" vertex="1" parent="kHhAgr1HZG3S3bv46wJ8-169">
          <mxGeometry x="130" width="110" height="30" as="geometry" />
        </mxCell>
        <mxCell id="60e70716793133e9-5" value="if n &amp;lt;= 1" style="rhombus;whiteSpace=wrap;html=1;rounded=0;shadow=1;labelBackgroundColor=none;strokeWidth=1;fontFamily=Verdana;fontSize=8;align=center;movable=1;resizable=1;rotatable=1;deletable=1;editable=1;locked=0;connectable=1;" parent="kHhAgr1HZG3S3bv46wJ8-169" vertex="1">
          <mxGeometry x="130" y="146" width="100" height="60" as="geometry" />
        </mxCell>
        <mxCell id="60e70716793133e9-7" value="for i=2; i &amp;lt;= n; i++" style="rhombus;whiteSpace=wrap;html=1;rounded=0;shadow=1;labelBackgroundColor=none;strokeWidth=1;fontFamily=Verdana;fontSize=8;align=center;movable=1;resizable=1;rotatable=1;deletable=1;editable=1;locked=0;connectable=1;" parent="kHhAgr1HZG3S3bv46wJ8-169" vertex="1">
          <mxGeometry x="130" y="416" width="100" height="60" as="geometry" />
        </mxCell>
        <mxCell id="kHhAgr1HZG3S3bv46wJ8-6" value="" style="ellipse;html=1;shape=startState;fillColor=#000000;strokeColor=#ff0000;movable=1;resizable=1;rotatable=1;deletable=1;editable=1;locked=0;connectable=1;" vertex="1" parent="kHhAgr1HZG3S3bv46wJ8-169">
          <mxGeometry x="165" y="26" width="30" height="30" as="geometry" />
        </mxCell>
        <mxCell id="kHhAgr1HZG3S3bv46wJ8-9" value="" style="ellipse;html=1;shape=endState;fillColor=#000000;strokeColor=#ff0000;movable=1;resizable=1;rotatable=1;deletable=1;editable=1;locked=0;connectable=1;" vertex="1" parent="kHhAgr1HZG3S3bv46wJ8-169">
          <mxGeometry x="165" y="648.5" width="30" height="30" as="geometry" />
        </mxCell>
        <mxCell id="kHhAgr1HZG3S3bv46wJ8-51" style="edgeStyle=orthogonalEdgeStyle;rounded=0;orthogonalLoop=1;jettySize=auto;html=1;entryX=1;entryY=0.5;entryDx=0;entryDy=0;movable=1;resizable=1;rotatable=1;deletable=1;editable=1;locked=0;connectable=1;" edge="1" parent="kHhAgr1HZG3S3bv46wJ8-169" source="60e70716793133e9-7" target="kHhAgr1HZG3S3bv46wJ8-9">
          <mxGeometry relative="1" as="geometry">
            <Array as="points">
              <mxPoint x="260" y="446" />
              <mxPoint x="260" y="664" />
            </Array>
          </mxGeometry>
        </mxCell>
        <mxCell id="kHhAgr1HZG3S3bv46wJ8-52" value="return arr[n]" style="edgeLabel;html=1;align=center;verticalAlign=middle;resizable=1;points=[];movable=1;rotatable=1;deletable=1;editable=1;locked=0;connectable=1;" vertex="1" connectable="0" parent="kHhAgr1HZG3S3bv46wJ8-51">
          <mxGeometry x="-0.5128" relative="1" as="geometry">
            <mxPoint as="offset" />
          </mxGeometry>
        </mxCell>
        <mxCell id="kHhAgr1HZG3S3bv46wJ8-15" style="edgeStyle=orthogonalEdgeStyle;rounded=0;orthogonalLoop=1;jettySize=auto;html=1;entryX=0.5;entryY=0;entryDx=0;entryDy=0;movable=1;resizable=1;rotatable=1;deletable=1;editable=1;locked=0;connectable=1;" edge="1" parent="kHhAgr1HZG3S3bv46wJ8-169" source="kHhAgr1HZG3S3bv46wJ8-14" target="60e70716793133e9-5">
          <mxGeometry relative="1" as="geometry" />
        </mxCell>
        <mxCell id="kHhAgr1HZG3S3bv46wJ8-14" value="&lt;font style=&quot;font-size: 10px;&quot;&gt;n = 6&lt;/font&gt;" style="rounded=1;whiteSpace=wrap;html=1;movable=1;resizable=1;rotatable=1;deletable=1;editable=1;locked=0;connectable=1;" vertex="1" parent="kHhAgr1HZG3S3bv46wJ8-169">
          <mxGeometry x="135" y="76" width="90" height="30" as="geometry" />
        </mxCell>
        <mxCell id="kHhAgr1HZG3S3bv46wJ8-8" style="edgeStyle=orthogonalEdgeStyle;rounded=0;orthogonalLoop=1;jettySize=auto;html=1;entryX=0.5;entryY=0;entryDx=0;entryDy=0;movable=1;resizable=1;rotatable=1;deletable=1;editable=1;locked=0;connectable=1;" edge="1" parent="kHhAgr1HZG3S3bv46wJ8-169" source="kHhAgr1HZG3S3bv46wJ8-6" target="kHhAgr1HZG3S3bv46wJ8-14">
          <mxGeometry relative="1" as="geometry">
            <mxPoint x="240" y="56" as="targetPoint" />
          </mxGeometry>
        </mxCell>
        <mxCell id="kHhAgr1HZG3S3bv46wJ8-20" value="" style="edgeStyle=orthogonalEdgeStyle;rounded=0;html=1;labelBackgroundColor=none;startSize=5;endArrow=classicThin;endFill=1;endSize=5;jettySize=auto;orthogonalLoop=1;strokeWidth=1;fontFamily=Verdana;fontSize=8;movable=1;resizable=1;rotatable=1;deletable=1;editable=1;locked=0;connectable=1;" edge="1" parent="kHhAgr1HZG3S3bv46wJ8-169" source="60e70716793133e9-5" target="kHhAgr1HZG3S3bv46wJ8-19">
          <mxGeometry x="-0.7778" y="10" relative="1" as="geometry">
            <mxPoint as="offset" />
            <mxPoint x="180" y="206" as="sourcePoint" />
            <mxPoint x="180" y="341" as="targetPoint" />
          </mxGeometry>
        </mxCell>
        <mxCell id="kHhAgr1HZG3S3bv46wJ8-31" value="False" style="edgeLabel;html=1;align=center;verticalAlign=middle;resizable=1;points=[];movable=1;rotatable=1;deletable=1;editable=1;locked=0;connectable=1;" vertex="1" connectable="0" parent="kHhAgr1HZG3S3bv46wJ8-20">
          <mxGeometry x="0.2785" relative="1" as="geometry">
            <mxPoint y="-6" as="offset" />
          </mxGeometry>
        </mxCell>
        <mxCell id="kHhAgr1HZG3S3bv46wJ8-19" value="if n == 2" style="rhombus;whiteSpace=wrap;html=1;rounded=0;shadow=1;labelBackgroundColor=none;strokeWidth=1;fontFamily=Verdana;fontSize=8;align=center;movable=1;resizable=1;rotatable=1;deletable=1;editable=1;locked=0;connectable=1;" vertex="1" parent="kHhAgr1HZG3S3bv46wJ8-169">
          <mxGeometry x="130" y="246" width="100" height="60" as="geometry" />
        </mxCell>
        <mxCell id="kHhAgr1HZG3S3bv46wJ8-22" value="" style="html=1;points=[];perimeter=orthogonalPerimeter;fillColor=strokeColor;movable=1;resizable=1;rotatable=1;deletable=1;editable=1;locked=0;connectable=1;" vertex="1" parent="kHhAgr1HZG3S3bv46wJ8-169">
          <mxGeometry x="50" y="636" width="5" height="55" as="geometry" />
        </mxCell>
        <mxCell id="kHhAgr1HZG3S3bv46wJ8-17" style="edgeStyle=orthogonalEdgeStyle;rounded=0;orthogonalLoop=1;jettySize=auto;html=1;entryX=0.133;entryY=0.806;entryDx=0;entryDy=0;entryPerimeter=0;exitX=0.023;exitY=0.506;exitDx=0;exitDy=0;exitPerimeter=0;movable=1;resizable=1;rotatable=1;deletable=1;editable=1;locked=0;connectable=1;" edge="1" parent="kHhAgr1HZG3S3bv46wJ8-169" source="60e70716793133e9-5" target="kHhAgr1HZG3S3bv46wJ8-22">
          <mxGeometry relative="1" as="geometry">
            <mxPoint x="106.97" y="449.98" as="targetPoint" />
            <mxPoint x="98.97" y="176" as="sourcePoint" />
            <Array as="points">
              <mxPoint y="176" />
              <mxPoint y="680" />
            </Array>
          </mxGeometry>
        </mxCell>
        <mxCell id="kHhAgr1HZG3S3bv46wJ8-23" value="&lt;br&gt;" style="edgeLabel;html=1;align=center;verticalAlign=middle;resizable=1;points=[];movable=1;rotatable=1;deletable=1;editable=1;locked=0;connectable=1;" vertex="1" connectable="0" parent="kHhAgr1HZG3S3bv46wJ8-17">
          <mxGeometry x="1" y="4" relative="1" as="geometry">
            <mxPoint x="2" y="-3" as="offset" />
          </mxGeometry>
        </mxCell>
        <mxCell id="kHhAgr1HZG3S3bv46wJ8-28" value="&amp;nbsp;return n&amp;nbsp;" style="edgeLabel;html=1;align=center;verticalAlign=middle;resizable=1;points=[];movable=1;rotatable=1;deletable=1;editable=1;locked=0;connectable=1;" vertex="1" connectable="0" parent="kHhAgr1HZG3S3bv46wJ8-17">
          <mxGeometry x="-0.8966" y="1" relative="1" as="geometry">
            <mxPoint x="-97" y="31" as="offset" />
          </mxGeometry>
        </mxCell>
        <mxCell id="kHhAgr1HZG3S3bv46wJ8-167" value="&amp;nbsp;True&amp;nbsp;" style="edgeLabel;html=1;align=center;verticalAlign=middle;resizable=0;points=[];" vertex="1" connectable="0" parent="kHhAgr1HZG3S3bv46wJ8-17">
          <mxGeometry x="-0.7617" relative="1" as="geometry">
            <mxPoint x="40" as="offset" />
          </mxGeometry>
        </mxCell>
        <mxCell id="kHhAgr1HZG3S3bv46wJ8-27" style="edgeStyle=orthogonalEdgeStyle;rounded=0;orthogonalLoop=1;jettySize=auto;html=1;entryX=0;entryY=0.5;entryDx=0;entryDy=0;movable=1;resizable=1;rotatable=1;deletable=1;editable=1;locked=0;connectable=1;" edge="1" parent="kHhAgr1HZG3S3bv46wJ8-169" source="kHhAgr1HZG3S3bv46wJ8-22" target="kHhAgr1HZG3S3bv46wJ8-9">
          <mxGeometry relative="1" as="geometry" />
        </mxCell>
        <mxCell id="kHhAgr1HZG3S3bv46wJ8-32" style="edgeStyle=orthogonalEdgeStyle;rounded=0;orthogonalLoop=1;jettySize=auto;html=1;exitX=-0.003;exitY=0.5;exitDx=0;exitDy=0;exitPerimeter=0;entryX=0.133;entryY=0.315;entryDx=0;entryDy=0;entryPerimeter=0;movable=1;resizable=1;rotatable=1;deletable=1;editable=1;locked=0;connectable=1;" edge="1" parent="kHhAgr1HZG3S3bv46wJ8-169" target="kHhAgr1HZG3S3bv46wJ8-22">
          <mxGeometry relative="1" as="geometry">
            <mxPoint x="129.69999999999993" y="276" as="sourcePoint" />
            <mxPoint x="123.66499999999996" y="465.025" as="targetPoint" />
            <Array as="points">
              <mxPoint x="20" y="276" />
              <mxPoint x="20" y="653" />
            </Array>
          </mxGeometry>
        </mxCell>
        <mxCell id="kHhAgr1HZG3S3bv46wJ8-33" value="&amp;nbsp;return 1&amp;nbsp;" style="edgeLabel;html=1;align=center;verticalAlign=middle;resizable=1;points=[];movable=1;rotatable=1;deletable=1;editable=1;locked=0;connectable=1;" vertex="1" connectable="0" parent="kHhAgr1HZG3S3bv46wJ8-32">
          <mxGeometry x="-0.8351" y="-1" relative="1" as="geometry">
            <mxPoint x="-57" y="31" as="offset" />
          </mxGeometry>
        </mxCell>
        <mxCell id="kHhAgr1HZG3S3bv46wJ8-168" value="&amp;nbsp;True&amp;nbsp;" style="edgeLabel;html=1;align=center;verticalAlign=middle;resizable=0;points=[];" vertex="1" connectable="0" parent="kHhAgr1HZG3S3bv46wJ8-32">
          <mxGeometry x="-0.8098" y="-1" relative="1" as="geometry">
            <mxPoint x="9" as="offset" />
          </mxGeometry>
        </mxCell>
        <mxCell id="kHhAgr1HZG3S3bv46wJ8-48" style="edgeStyle=orthogonalEdgeStyle;rounded=0;orthogonalLoop=1;jettySize=auto;html=1;entryX=0;entryY=0.5;entryDx=0;entryDy=0;exitX=0;exitY=0.5;exitDx=0;exitDy=0;movable=1;resizable=1;rotatable=1;deletable=1;editable=1;locked=0;connectable=1;" edge="1" parent="kHhAgr1HZG3S3bv46wJ8-169" source="kHhAgr1HZG3S3bv46wJ8-38" target="60e70716793133e9-7">
          <mxGeometry relative="1" as="geometry" />
        </mxCell>
        <mxCell id="kHhAgr1HZG3S3bv46wJ8-49" value="Loop continue" style="edgeLabel;html=1;align=center;verticalAlign=middle;resizable=1;points=[];movable=1;rotatable=1;deletable=1;editable=1;locked=0;connectable=1;" vertex="1" connectable="0" parent="kHhAgr1HZG3S3bv46wJ8-48">
          <mxGeometry x="0.0463" relative="1" as="geometry">
            <mxPoint as="offset" />
          </mxGeometry>
        </mxCell>
        <mxCell id="kHhAgr1HZG3S3bv46wJ8-38" value="&lt;font style=&quot;font-size: 10px;&quot;&gt;arr[i] = arr[i-1] + arr[i -2&lt;/font&gt;]" style="rounded=1;whiteSpace=wrap;html=1;movable=1;resizable=1;rotatable=1;deletable=1;editable=1;locked=0;connectable=1;" vertex="1" parent="kHhAgr1HZG3S3bv46wJ8-169">
          <mxGeometry x="120" y="526" width="120" height="60" as="geometry" />
        </mxCell>
        <mxCell id="kHhAgr1HZG3S3bv46wJ8-40" style="edgeStyle=orthogonalEdgeStyle;rounded=0;orthogonalLoop=1;jettySize=auto;html=1;entryX=0.5;entryY=0;entryDx=0;entryDy=0;movable=1;resizable=1;rotatable=1;deletable=1;editable=1;locked=0;connectable=1;" edge="1" parent="kHhAgr1HZG3S3bv46wJ8-169" source="60e70716793133e9-7" target="kHhAgr1HZG3S3bv46wJ8-38">
          <mxGeometry relative="1" as="geometry" />
        </mxCell>
        <mxCell id="kHhAgr1HZG3S3bv46wJ8-39" value="" style="edgeStyle=orthogonalEdgeStyle;rounded=0;html=1;labelBackgroundColor=none;startSize=5;endArrow=classicThin;endFill=1;endSize=5;jettySize=auto;orthogonalLoop=1;strokeWidth=1;fontFamily=Verdana;fontSize=8;movable=1;resizable=1;rotatable=1;deletable=1;editable=1;locked=0;connectable=1;" edge="1" parent="kHhAgr1HZG3S3bv46wJ8-169" source="kHhAgr1HZG3S3bv46wJ8-19" target="60e70716793133e9-8">
          <mxGeometry x="-0.5556" y="20" relative="1" as="geometry">
            <mxPoint as="offset" />
            <mxPoint x="180" y="306" as="sourcePoint" />
            <mxPoint x="180" y="406" as="targetPoint" />
          </mxGeometry>
        </mxCell>
        <mxCell id="kHhAgr1HZG3S3bv46wJ8-55" value="False" style="edgeLabel;html=1;align=center;verticalAlign=middle;resizable=1;points=[];movable=1;rotatable=1;deletable=1;editable=1;locked=0;connectable=1;" vertex="1" connectable="0" parent="kHhAgr1HZG3S3bv46wJ8-39">
          <mxGeometry x="-0.016" relative="1" as="geometry">
            <mxPoint as="offset" />
          </mxGeometry>
        </mxCell>
        <mxCell id="60e70716793133e9-8" value="Create arr&lt;br&gt;arr[0] = 0&lt;br&gt;arr[1] = 1" style="rounded=1;whiteSpace=wrap;html=1;shadow=1;labelBackgroundColor=none;strokeWidth=1;fontFamily=Verdana;fontSize=8;align=center;movable=1;resizable=1;rotatable=1;deletable=1;editable=1;locked=0;connectable=1;" parent="kHhAgr1HZG3S3bv46wJ8-169" vertex="1">
          <mxGeometry x="130" y="356" width="100" height="40" as="geometry" />
        </mxCell>
        <mxCell id="kHhAgr1HZG3S3bv46wJ8-50" value="&lt;font style=&quot;font-size: 10px;&quot;&gt;Loop&lt;/font&gt;" style="text;html=1;strokeColor=none;fillColor=none;align=center;verticalAlign=middle;whiteSpace=wrap;rounded=0;movable=1;resizable=1;rotatable=1;deletable=1;editable=1;locked=0;connectable=1;" vertex="1" parent="kHhAgr1HZG3S3bv46wJ8-169">
          <mxGeometry x="160" y="418" width="40" height="20" as="geometry" />
        </mxCell>
        <mxCell id="60e70716793133e9-33" value="" style="edgeStyle=orthogonalEdgeStyle;rounded=0;html=1;labelBackgroundColor=none;startSize=5;endArrow=classicThin;endFill=1;endSize=5;jettySize=auto;orthogonalLoop=1;strokeWidth=1;fontFamily=Verdana;fontSize=8;movable=1;resizable=1;rotatable=1;deletable=1;editable=1;locked=0;connectable=1;" parent="kHhAgr1HZG3S3bv46wJ8-169" source="60e70716793133e9-8" target="60e70716793133e9-7" edge="1">
          <mxGeometry x="-0.5556" y="20" relative="1" as="geometry">
            <mxPoint as="offset" />
          </mxGeometry>
        </mxCell>
        <mxCell id="kHhAgr1HZG3S3bv46wJ8-170" value="" style="group" vertex="1" connectable="0" parent="1">
          <mxGeometry x="397.25" y="10" width="260" height="342" as="geometry" />
        </mxCell>
        <mxCell id="kHhAgr1HZG3S3bv46wJ8-68" value="Recursive algorithm" style="text;strokeColor=none;fillColor=none;align=left;verticalAlign=middle;spacingLeft=4;spacingRight=4;overflow=hidden;points=[[0,0.5],[1,0.5]];portConstraint=eastwest;rotatable=0;whiteSpace=wrap;html=1;" vertex="1" parent="kHhAgr1HZG3S3bv46wJ8-170">
          <mxGeometry width="122.5" height="30" as="geometry" />
        </mxCell>
        <mxCell id="kHhAgr1HZG3S3bv46wJ8-60" value="if n &amp;lt;= 1" style="rhombus;whiteSpace=wrap;html=1;rounded=0;shadow=1;labelBackgroundColor=none;strokeWidth=1;fontFamily=Verdana;fontSize=8;align=center;" vertex="1" parent="kHhAgr1HZG3S3bv46wJ8-170">
          <mxGeometry y="197" width="100" height="60" as="geometry" />
        </mxCell>
        <mxCell id="kHhAgr1HZG3S3bv46wJ8-66" value="" style="ellipse;html=1;shape=startState;fillColor=#000000;strokeColor=#ff0000;" vertex="1" parent="kHhAgr1HZG3S3bv46wJ8-170">
          <mxGeometry x="35" y="27" width="30" height="30" as="geometry" />
        </mxCell>
        <mxCell id="kHhAgr1HZG3S3bv46wJ8-67" value="" style="ellipse;html=1;shape=endState;fillColor=#000000;strokeColor=#ff0000;" vertex="1" parent="kHhAgr1HZG3S3bv46wJ8-170">
          <mxGeometry x="35" y="312" width="30" height="30" as="geometry" />
        </mxCell>
        <mxCell id="kHhAgr1HZG3S3bv46wJ8-69" style="edgeStyle=orthogonalEdgeStyle;rounded=0;orthogonalLoop=1;jettySize=auto;html=1;entryX=0.5;entryY=0;entryDx=0;entryDy=0;exitX=0.5;exitY=1;exitDx=0;exitDy=0;" edge="1" source="kHhAgr1HZG3S3bv46wJ8-93" target="kHhAgr1HZG3S3bv46wJ8-60" parent="kHhAgr1HZG3S3bv46wJ8-170">
          <mxGeometry relative="1" as="geometry">
            <mxPoint x="50.024390243902644" y="117" as="sourcePoint" />
          </mxGeometry>
        </mxCell>
        <mxCell id="kHhAgr1HZG3S3bv46wJ8-75" style="edgeStyle=orthogonalEdgeStyle;rounded=0;orthogonalLoop=1;jettySize=auto;html=1;entryX=0.5;entryY=0;entryDx=0;entryDy=0;" edge="1" target="kHhAgr1HZG3S3bv46wJ8-67" parent="kHhAgr1HZG3S3bv46wJ8-170">
          <mxGeometry relative="1" as="geometry">
            <mxPoint x="50" y="256" as="sourcePoint" />
          </mxGeometry>
        </mxCell>
        <mxCell id="kHhAgr1HZG3S3bv46wJ8-76" value="&amp;nbsp;return n&amp;nbsp;" style="edgeLabel;html=1;align=center;verticalAlign=middle;resizable=0;points=[];" vertex="1" connectable="0" parent="kHhAgr1HZG3S3bv46wJ8-75">
          <mxGeometry x="-0.0514" y="1" relative="1" as="geometry">
            <mxPoint as="offset" />
          </mxGeometry>
        </mxCell>
        <mxCell id="kHhAgr1HZG3S3bv46wJ8-89" value="&lt;font style=&quot;font-size: 10px;&quot;&gt;recursive call&lt;br&gt;f(n - 1) +&amp;nbsp;&lt;/font&gt;f(n - 2)" style="rounded=1;whiteSpace=wrap;html=1;" vertex="1" parent="kHhAgr1HZG3S3bv46wJ8-170">
          <mxGeometry x="140" y="208" width="120" height="38" as="geometry" />
        </mxCell>
        <mxCell id="kHhAgr1HZG3S3bv46wJ8-99" style="edgeStyle=orthogonalEdgeStyle;rounded=0;orthogonalLoop=1;jettySize=auto;html=1;entryX=0;entryY=0.5;entryDx=0;entryDy=0;exitX=1;exitY=0.5;exitDx=0;exitDy=0;" edge="1" parent="kHhAgr1HZG3S3bv46wJ8-170" source="kHhAgr1HZG3S3bv46wJ8-60" target="kHhAgr1HZG3S3bv46wJ8-89">
          <mxGeometry relative="1" as="geometry">
            <mxPoint x="100" y="226" as="sourcePoint" />
          </mxGeometry>
        </mxCell>
        <mxCell id="kHhAgr1HZG3S3bv46wJ8-93" value="&lt;font style=&quot;font-size: 10px;&quot;&gt;f(n)&lt;/font&gt;" style="rounded=1;whiteSpace=wrap;html=1;" vertex="1" parent="kHhAgr1HZG3S3bv46wJ8-170">
          <mxGeometry x="17.5" y="117" width="65" height="30" as="geometry" />
        </mxCell>
        <mxCell id="kHhAgr1HZG3S3bv46wJ8-100" style="edgeStyle=orthogonalEdgeStyle;rounded=0;orthogonalLoop=1;jettySize=auto;html=1;entryX=1;entryY=0.75;entryDx=0;entryDy=0;exitX=0.25;exitY=0;exitDx=0;exitDy=0;" edge="1" parent="kHhAgr1HZG3S3bv46wJ8-170" source="kHhAgr1HZG3S3bv46wJ8-89" target="kHhAgr1HZG3S3bv46wJ8-93">
          <mxGeometry relative="1" as="geometry" />
        </mxCell>
        <mxCell id="kHhAgr1HZG3S3bv46wJ8-102" value="f(n - 1)" style="edgeLabel;html=1;align=center;verticalAlign=middle;resizable=0;points=[];" vertex="1" connectable="0" parent="kHhAgr1HZG3S3bv46wJ8-100">
          <mxGeometry x="-0.4845" y="1" relative="1" as="geometry">
            <mxPoint as="offset" />
          </mxGeometry>
        </mxCell>
        <mxCell id="kHhAgr1HZG3S3bv46wJ8-101" style="edgeStyle=orthogonalEdgeStyle;rounded=0;orthogonalLoop=1;jettySize=auto;html=1;exitX=0.75;exitY=0;exitDx=0;exitDy=0;entryX=1;entryY=0.25;entryDx=0;entryDy=0;" edge="1" parent="kHhAgr1HZG3S3bv46wJ8-170" source="kHhAgr1HZG3S3bv46wJ8-89" target="kHhAgr1HZG3S3bv46wJ8-93">
          <mxGeometry relative="1" as="geometry">
            <mxPoint x="250" y="87" as="targetPoint" />
          </mxGeometry>
        </mxCell>
        <mxCell id="kHhAgr1HZG3S3bv46wJ8-103" value="f(n - 2)" style="edgeLabel;html=1;align=center;verticalAlign=middle;resizable=0;points=[];" vertex="1" connectable="0" parent="kHhAgr1HZG3S3bv46wJ8-101">
          <mxGeometry x="-0.656" relative="1" as="geometry">
            <mxPoint as="offset" />
          </mxGeometry>
        </mxCell>
        <mxCell id="kHhAgr1HZG3S3bv46wJ8-95" style="edgeStyle=orthogonalEdgeStyle;rounded=0;orthogonalLoop=1;jettySize=auto;html=1;" edge="1" parent="kHhAgr1HZG3S3bv46wJ8-170" source="kHhAgr1HZG3S3bv46wJ8-94" target="kHhAgr1HZG3S3bv46wJ8-93">
          <mxGeometry relative="1" as="geometry" />
        </mxCell>
        <mxCell id="kHhAgr1HZG3S3bv46wJ8-94" value="&lt;font style=&quot;font-size: 10px;&quot;&gt;n = 6&lt;/font&gt;" style="rounded=1;whiteSpace=wrap;html=1;" vertex="1" parent="kHhAgr1HZG3S3bv46wJ8-170">
          <mxGeometry x="17.5" y="77" width="65" height="16" as="geometry" />
        </mxCell>
        <mxCell id="kHhAgr1HZG3S3bv46wJ8-98" style="edgeStyle=orthogonalEdgeStyle;rounded=0;orthogonalLoop=1;jettySize=auto;html=1;entryX=0.5;entryY=0;entryDx=0;entryDy=0;" edge="1" parent="kHhAgr1HZG3S3bv46wJ8-170" source="kHhAgr1HZG3S3bv46wJ8-66" target="kHhAgr1HZG3S3bv46wJ8-94">
          <mxGeometry relative="1" as="geometry" />
        </mxCell>
        <mxCell id="kHhAgr1HZG3S3bv46wJ8-171" value="" style="group" vertex="1" connectable="0" parent="1">
          <mxGeometry x="719.94" y="10" width="322" height="777.5" as="geometry" />
        </mxCell>
        <mxCell id="kHhAgr1HZG3S3bv46wJ8-114" value="Iteration DP algorithm" style="text;strokeColor=none;fillColor=none;align=left;verticalAlign=middle;spacingLeft=4;spacingRight=4;overflow=hidden;points=[[0,0.5],[1,0.5]];portConstraint=eastwest;rotatable=1;whiteSpace=wrap;html=1;movable=1;resizable=1;deletable=1;editable=1;locked=0;connectable=1;container=0;" vertex="1" parent="kHhAgr1HZG3S3bv46wJ8-171">
          <mxGeometry x="132" width="130" height="30" as="geometry" />
        </mxCell>
        <mxCell id="kHhAgr1HZG3S3bv46wJ8-108" value="if n &amp;lt;= 1" style="rhombus;whiteSpace=wrap;html=1;rounded=0;shadow=1;labelBackgroundColor=none;strokeWidth=1;fontFamily=Verdana;fontSize=8;align=center;movable=1;resizable=1;rotatable=1;deletable=1;editable=1;locked=0;connectable=1;container=0;" vertex="1" parent="kHhAgr1HZG3S3bv46wJ8-171">
          <mxGeometry x="142" y="147" width="100" height="60" as="geometry" />
        </mxCell>
        <mxCell id="kHhAgr1HZG3S3bv46wJ8-109" value="for i=idx; i &amp;lt;= n; i++" style="rhombus;whiteSpace=wrap;html=1;rounded=0;shadow=1;labelBackgroundColor=none;strokeWidth=1;fontFamily=Verdana;fontSize=8;align=center;movable=1;resizable=1;rotatable=1;deletable=1;editable=1;locked=0;connectable=1;container=0;" vertex="1" parent="kHhAgr1HZG3S3bv46wJ8-171">
          <mxGeometry x="132" y="535" width="120" height="76" as="geometry" />
        </mxCell>
        <mxCell id="kHhAgr1HZG3S3bv46wJ8-110" value="" style="ellipse;html=1;shape=startState;fillColor=#000000;strokeColor=#ff0000;movable=1;resizable=1;rotatable=1;deletable=1;editable=1;locked=0;connectable=1;container=0;" vertex="1" parent="kHhAgr1HZG3S3bv46wJ8-171">
          <mxGeometry x="177" y="27" width="30" height="30" as="geometry" />
        </mxCell>
        <mxCell id="kHhAgr1HZG3S3bv46wJ8-111" value="" style="ellipse;html=1;shape=endState;fillColor=#000000;strokeColor=#ff0000;movable=1;resizable=1;rotatable=1;deletable=1;editable=1;locked=0;connectable=1;container=0;" vertex="1" parent="kHhAgr1HZG3S3bv46wJ8-171">
          <mxGeometry x="177" y="735" width="30" height="30" as="geometry" />
        </mxCell>
        <mxCell id="kHhAgr1HZG3S3bv46wJ8-112" style="edgeStyle=orthogonalEdgeStyle;rounded=0;orthogonalLoop=1;jettySize=auto;html=1;movable=1;resizable=1;rotatable=1;deletable=1;editable=1;locked=0;connectable=1;exitX=1;exitY=0.5;exitDx=0;exitDy=0;entryX=1;entryY=0.5;entryDx=0;entryDy=0;" edge="1" parent="kHhAgr1HZG3S3bv46wJ8-171" source="kHhAgr1HZG3S3bv46wJ8-109" target="kHhAgr1HZG3S3bv46wJ8-111">
          <mxGeometry relative="1" as="geometry">
            <mxPoint x="267" y="563" as="sourcePoint" />
            <mxPoint x="242" y="705" as="targetPoint" />
            <Array as="points">
              <mxPoint x="287" y="573" />
              <mxPoint x="287" y="750" />
            </Array>
          </mxGeometry>
        </mxCell>
        <mxCell id="kHhAgr1HZG3S3bv46wJ8-113" value="return&amp;nbsp;fibNum" style="edgeLabel;html=1;align=center;verticalAlign=middle;resizable=1;points=[];movable=1;rotatable=1;deletable=1;editable=1;locked=0;connectable=1;container=0;" vertex="1" connectable="0" parent="kHhAgr1HZG3S3bv46wJ8-112">
          <mxGeometry x="-0.5128" relative="1" as="geometry">
            <mxPoint y="2" as="offset" />
          </mxGeometry>
        </mxCell>
        <mxCell id="kHhAgr1HZG3S3bv46wJ8-115" style="edgeStyle=orthogonalEdgeStyle;rounded=0;orthogonalLoop=1;jettySize=auto;html=1;entryX=0.5;entryY=0;entryDx=0;entryDy=0;movable=1;resizable=1;rotatable=1;deletable=1;editable=1;locked=0;connectable=1;" edge="1" parent="kHhAgr1HZG3S3bv46wJ8-171" source="kHhAgr1HZG3S3bv46wJ8-116" target="kHhAgr1HZG3S3bv46wJ8-108">
          <mxGeometry relative="1" as="geometry" />
        </mxCell>
        <mxCell id="kHhAgr1HZG3S3bv46wJ8-116" value="&lt;font style=&quot;font-size: 10px;&quot;&gt;cache = ArrayList&amp;nbsp;&lt;br&gt;n = 6&lt;/font&gt;" style="rounded=1;whiteSpace=wrap;html=1;movable=1;resizable=1;rotatable=1;deletable=1;editable=1;locked=0;connectable=1;container=0;" vertex="1" parent="kHhAgr1HZG3S3bv46wJ8-171">
          <mxGeometry x="147" y="77" width="90" height="30" as="geometry" />
        </mxCell>
        <mxCell id="kHhAgr1HZG3S3bv46wJ8-117" style="edgeStyle=orthogonalEdgeStyle;rounded=0;orthogonalLoop=1;jettySize=auto;html=1;entryX=0.5;entryY=0;entryDx=0;entryDy=0;movable=1;resizable=1;rotatable=1;deletable=1;editable=1;locked=0;connectable=1;" edge="1" parent="kHhAgr1HZG3S3bv46wJ8-171" source="kHhAgr1HZG3S3bv46wJ8-110" target="kHhAgr1HZG3S3bv46wJ8-116">
          <mxGeometry relative="1" as="geometry">
            <mxPoint x="252" y="57" as="targetPoint" />
          </mxGeometry>
        </mxCell>
        <mxCell id="kHhAgr1HZG3S3bv46wJ8-118" value="" style="edgeStyle=orthogonalEdgeStyle;rounded=0;html=1;labelBackgroundColor=none;startSize=5;endArrow=classicThin;endFill=1;endSize=5;jettySize=auto;orthogonalLoop=1;strokeWidth=1;fontFamily=Verdana;fontSize=8;movable=1;resizable=1;rotatable=1;deletable=1;editable=1;locked=0;connectable=1;" edge="1" parent="kHhAgr1HZG3S3bv46wJ8-171" source="kHhAgr1HZG3S3bv46wJ8-108" target="kHhAgr1HZG3S3bv46wJ8-120">
          <mxGeometry x="-0.7778" y="10" relative="1" as="geometry">
            <mxPoint as="offset" />
            <mxPoint x="192" y="207" as="sourcePoint" />
            <mxPoint x="192" y="342" as="targetPoint" />
          </mxGeometry>
        </mxCell>
        <mxCell id="kHhAgr1HZG3S3bv46wJ8-120" value="if n == 2" style="rhombus;whiteSpace=wrap;html=1;rounded=0;shadow=1;labelBackgroundColor=none;strokeWidth=1;fontFamily=Verdana;fontSize=8;align=center;movable=1;resizable=1;rotatable=1;deletable=1;editable=1;locked=0;connectable=1;container=0;" vertex="1" parent="kHhAgr1HZG3S3bv46wJ8-171">
          <mxGeometry x="142" y="247" width="100" height="60" as="geometry" />
        </mxCell>
        <mxCell id="kHhAgr1HZG3S3bv46wJ8-121" value="" style="html=1;points=[];perimeter=orthogonalPerimeter;fillColor=strokeColor;movable=1;resizable=1;rotatable=1;deletable=1;editable=1;locked=0;connectable=1;container=0;" vertex="1" parent="kHhAgr1HZG3S3bv46wJ8-171">
          <mxGeometry x="100.05999999999995" y="722.5" width="5" height="55" as="geometry" />
        </mxCell>
        <mxCell id="kHhAgr1HZG3S3bv46wJ8-122" style="edgeStyle=orthogonalEdgeStyle;rounded=0;orthogonalLoop=1;jettySize=auto;html=1;exitX=0;exitY=0.5;exitDx=0;exitDy=0;movable=1;resizable=1;rotatable=1;deletable=1;editable=1;locked=0;connectable=1;" edge="1" parent="kHhAgr1HZG3S3bv46wJ8-171" source="kHhAgr1HZG3S3bv46wJ8-108">
          <mxGeometry relative="1" as="geometry">
            <mxPoint x="100.05999999999995" y="763" as="targetPoint" />
            <mxPoint x="132.00000000000023" y="175.53000000000003" as="sourcePoint" />
            <Array as="points">
              <mxPoint y="177" />
              <mxPoint y="763" />
            </Array>
          </mxGeometry>
        </mxCell>
        <mxCell id="kHhAgr1HZG3S3bv46wJ8-123" value="&lt;br&gt;" style="edgeLabel;html=1;align=center;verticalAlign=middle;resizable=1;points=[];movable=1;rotatable=1;deletable=1;editable=1;locked=0;connectable=1;container=0;" vertex="1" connectable="0" parent="kHhAgr1HZG3S3bv46wJ8-122">
          <mxGeometry x="1" y="4" relative="1" as="geometry">
            <mxPoint x="2" y="-3" as="offset" />
          </mxGeometry>
        </mxCell>
        <mxCell id="kHhAgr1HZG3S3bv46wJ8-124" value="&amp;nbsp;return n&amp;nbsp;" style="edgeLabel;html=1;align=center;verticalAlign=middle;resizable=1;points=[];movable=1;rotatable=1;deletable=1;editable=1;locked=0;connectable=1;container=0;" vertex="1" connectable="0" parent="kHhAgr1HZG3S3bv46wJ8-122">
          <mxGeometry x="-0.8966" y="1" relative="1" as="geometry">
            <mxPoint x="-99" y="37" as="offset" />
          </mxGeometry>
        </mxCell>
        <mxCell id="kHhAgr1HZG3S3bv46wJ8-161" value="&amp;nbsp;True&amp;nbsp;" style="edgeLabel;html=1;align=center;verticalAlign=middle;resizable=0;points=[];container=0;" vertex="1" connectable="0" parent="kHhAgr1HZG3S3bv46wJ8-122">
          <mxGeometry x="-0.7722" relative="1" as="geometry">
            <mxPoint x="61" as="offset" />
          </mxGeometry>
        </mxCell>
        <mxCell id="kHhAgr1HZG3S3bv46wJ8-125" style="edgeStyle=orthogonalEdgeStyle;rounded=0;orthogonalLoop=1;jettySize=auto;html=1;entryX=0;entryY=0.5;entryDx=0;entryDy=0;movable=1;resizable=1;rotatable=1;deletable=1;editable=1;locked=0;connectable=1;exitX=1.005;exitY=0.507;exitDx=0;exitDy=0;exitPerimeter=0;" edge="1" parent="kHhAgr1HZG3S3bv46wJ8-171" source="kHhAgr1HZG3S3bv46wJ8-121" target="kHhAgr1HZG3S3bv46wJ8-111">
          <mxGeometry relative="1" as="geometry">
            <mxPoint x="107" y="750" as="sourcePoint" />
          </mxGeometry>
        </mxCell>
        <mxCell id="kHhAgr1HZG3S3bv46wJ8-127" style="edgeStyle=orthogonalEdgeStyle;rounded=0;orthogonalLoop=1;jettySize=auto;html=1;movable=1;resizable=1;rotatable=1;deletable=1;editable=1;locked=0;connectable=1;entryX=-0.019;entryY=0.465;entryDx=0;entryDy=0;entryPerimeter=0;" edge="1" parent="kHhAgr1HZG3S3bv46wJ8-171" target="kHhAgr1HZG3S3bv46wJ8-121">
          <mxGeometry relative="1" as="geometry">
            <mxPoint x="140.05999999999995" y="277" as="sourcePoint" />
            <mxPoint x="102" y="748" as="targetPoint" />
            <Array as="points">
              <mxPoint x="142.05999999999995" y="277" />
              <mxPoint x="32.059999999999945" y="277" />
              <mxPoint x="32.059999999999945" y="748" />
            </Array>
          </mxGeometry>
        </mxCell>
        <mxCell id="kHhAgr1HZG3S3bv46wJ8-128" value="&amp;nbsp;return 1&amp;nbsp;" style="edgeLabel;html=1;align=center;verticalAlign=middle;resizable=1;points=[];movable=1;rotatable=1;deletable=1;editable=1;locked=0;connectable=1;container=0;" vertex="1" connectable="0" parent="kHhAgr1HZG3S3bv46wJ8-127">
          <mxGeometry x="-0.8351" y="-1" relative="1" as="geometry">
            <mxPoint x="-59" y="31" as="offset" />
          </mxGeometry>
        </mxCell>
        <mxCell id="kHhAgr1HZG3S3bv46wJ8-162" value="&amp;nbsp;True&amp;nbsp;" style="edgeLabel;html=1;align=center;verticalAlign=middle;resizable=0;points=[];container=0;" vertex="1" connectable="0" parent="kHhAgr1HZG3S3bv46wJ8-127">
          <mxGeometry x="-0.7802" y="1" relative="1" as="geometry">
            <mxPoint x="38" as="offset" />
          </mxGeometry>
        </mxCell>
        <mxCell id="kHhAgr1HZG3S3bv46wJ8-129" style="edgeStyle=orthogonalEdgeStyle;rounded=0;orthogonalLoop=1;jettySize=auto;html=1;exitX=0;exitY=0.5;exitDx=0;exitDy=0;movable=1;resizable=1;rotatable=1;deletable=1;editable=1;locked=0;connectable=1;" edge="1" parent="kHhAgr1HZG3S3bv46wJ8-171" source="kHhAgr1HZG3S3bv46wJ8-131" target="kHhAgr1HZG3S3bv46wJ8-109">
          <mxGeometry relative="1" as="geometry">
            <mxPoint x="132" y="645" as="sourcePoint" />
            <mxPoint x="122" y="575" as="targetPoint" />
            <Array as="points">
              <mxPoint x="92" y="658" />
              <mxPoint x="92" y="575" />
            </Array>
          </mxGeometry>
        </mxCell>
        <mxCell id="kHhAgr1HZG3S3bv46wJ8-130" value="Loop" style="edgeLabel;html=1;align=center;verticalAlign=middle;resizable=1;points=[];movable=1;rotatable=1;deletable=1;editable=1;locked=0;connectable=1;container=0;" vertex="1" connectable="0" parent="kHhAgr1HZG3S3bv46wJ8-129">
          <mxGeometry x="0.0463" relative="1" as="geometry">
            <mxPoint as="offset" />
          </mxGeometry>
        </mxCell>
        <mxCell id="kHhAgr1HZG3S3bv46wJ8-131" value="&lt;font style=&quot;font-size: 10px;&quot;&gt;fibNum = &lt;br&gt;cache.get(i-1)+cache.get(i-2)&lt;/font&gt;" style="rounded=1;whiteSpace=wrap;html=1;movable=1;resizable=1;rotatable=1;deletable=1;editable=1;locked=0;connectable=1;container=0;" vertex="1" parent="kHhAgr1HZG3S3bv46wJ8-171">
          <mxGeometry x="122" y="645" width="140" height="60" as="geometry" />
        </mxCell>
        <mxCell id="kHhAgr1HZG3S3bv46wJ8-164" style="edgeStyle=orthogonalEdgeStyle;rounded=0;orthogonalLoop=1;jettySize=auto;html=1;entryX=0.5;entryY=0;entryDx=0;entryDy=0;" edge="1" parent="kHhAgr1HZG3S3bv46wJ8-171" source="kHhAgr1HZG3S3bv46wJ8-109" target="kHhAgr1HZG3S3bv46wJ8-131">
          <mxGeometry relative="1" as="geometry" />
        </mxCell>
        <mxCell id="kHhAgr1HZG3S3bv46wJ8-136" value="&lt;font style=&quot;font-size: 10px;&quot;&gt;Loop&lt;/font&gt;" style="text;html=1;strokeColor=none;fillColor=none;align=center;verticalAlign=middle;whiteSpace=wrap;rounded=0;movable=1;resizable=1;rotatable=1;deletable=1;editable=1;locked=0;connectable=1;container=0;" vertex="1" parent="kHhAgr1HZG3S3bv46wJ8-171">
          <mxGeometry x="172" y="545" width="40" height="20" as="geometry" />
        </mxCell>
        <mxCell id="kHhAgr1HZG3S3bv46wJ8-139" value="if cache contains n&lt;br&gt;cache.get(n)" style="rhombus;whiteSpace=wrap;html=1;rounded=0;shadow=1;labelBackgroundColor=none;strokeWidth=1;fontFamily=Verdana;fontSize=8;align=center;movable=1;resizable=1;rotatable=1;deletable=1;editable=1;locked=0;connectable=1;container=0;" vertex="1" parent="kHhAgr1HZG3S3bv46wJ8-171">
          <mxGeometry x="142" y="345" width="100" height="60" as="geometry" />
        </mxCell>
        <mxCell id="kHhAgr1HZG3S3bv46wJ8-140" style="edgeStyle=orthogonalEdgeStyle;rounded=0;orthogonalLoop=1;jettySize=auto;html=1;entryX=0.5;entryY=0;entryDx=0;entryDy=0;" edge="1" parent="kHhAgr1HZG3S3bv46wJ8-171" source="kHhAgr1HZG3S3bv46wJ8-120" target="kHhAgr1HZG3S3bv46wJ8-139">
          <mxGeometry relative="1" as="geometry" />
        </mxCell>
        <mxCell id="kHhAgr1HZG3S3bv46wJ8-142" style="edgeStyle=orthogonalEdgeStyle;rounded=0;orthogonalLoop=1;jettySize=auto;html=1;entryX=0;entryY=0.225;entryDx=0;entryDy=0;entryPerimeter=0;" edge="1" parent="kHhAgr1HZG3S3bv46wJ8-171" source="kHhAgr1HZG3S3bv46wJ8-139" target="kHhAgr1HZG3S3bv46wJ8-121">
          <mxGeometry relative="1" as="geometry">
            <mxPoint x="90.05999999999995" y="737" as="targetPoint" />
            <Array as="points">
              <mxPoint x="62.059999999999945" y="375" />
              <mxPoint x="62.059999999999945" y="735" />
              <mxPoint x="90.05999999999995" y="735" />
            </Array>
          </mxGeometry>
        </mxCell>
        <mxCell id="kHhAgr1HZG3S3bv46wJ8-145" value="&amp;nbsp;return n&amp;nbsp;" style="edgeLabel;html=1;align=center;verticalAlign=middle;resizable=0;points=[];container=0;" vertex="1" connectable="0" parent="kHhAgr1HZG3S3bv46wJ8-142">
          <mxGeometry x="-0.7481" relative="1" as="geometry">
            <mxPoint x="-23" y="30" as="offset" />
          </mxGeometry>
        </mxCell>
        <mxCell id="kHhAgr1HZG3S3bv46wJ8-163" value="&amp;nbsp;True&amp;nbsp;" style="edgeLabel;html=1;align=center;verticalAlign=middle;resizable=0;points=[];container=0;" vertex="1" connectable="0" parent="kHhAgr1HZG3S3bv46wJ8-142">
          <mxGeometry x="-0.7501" relative="1" as="geometry">
            <mxPoint x="26" as="offset" />
          </mxGeometry>
        </mxCell>
        <mxCell id="kHhAgr1HZG3S3bv46wJ8-147" value="if&lt;br&gt;cache.size()==0" style="rhombus;whiteSpace=wrap;html=1;rounded=0;shadow=1;labelBackgroundColor=none;strokeWidth=1;fontFamily=Verdana;fontSize=8;align=center;movable=1;resizable=1;rotatable=1;deletable=1;editable=1;locked=0;connectable=1;container=0;" vertex="1" parent="kHhAgr1HZG3S3bv46wJ8-171">
          <mxGeometry x="142" y="435" width="100" height="60" as="geometry" />
        </mxCell>
        <mxCell id="kHhAgr1HZG3S3bv46wJ8-160" style="edgeStyle=orthogonalEdgeStyle;rounded=0;orthogonalLoop=1;jettySize=auto;html=1;entryX=0.5;entryY=0;entryDx=0;entryDy=0;" edge="1" parent="kHhAgr1HZG3S3bv46wJ8-171" source="kHhAgr1HZG3S3bv46wJ8-139" target="kHhAgr1HZG3S3bv46wJ8-147">
          <mxGeometry relative="1" as="geometry" />
        </mxCell>
        <mxCell id="kHhAgr1HZG3S3bv46wJ8-159" style="edgeStyle=orthogonalEdgeStyle;rounded=0;orthogonalLoop=1;jettySize=auto;html=1;entryX=0.5;entryY=0;entryDx=0;entryDy=0;" edge="1" parent="kHhAgr1HZG3S3bv46wJ8-171" source="kHhAgr1HZG3S3bv46wJ8-154" target="kHhAgr1HZG3S3bv46wJ8-109">
          <mxGeometry relative="1" as="geometry" />
        </mxCell>
        <mxCell id="kHhAgr1HZG3S3bv46wJ8-154" value="" style="html=1;points=[];perimeter=orthogonalPerimeter;fillColor=strokeColor;direction=south;container=0;" vertex="1" parent="kHhAgr1HZG3S3bv46wJ8-171">
          <mxGeometry x="152" y="502.5" width="80" height="5" as="geometry" />
        </mxCell>
        <mxCell id="kHhAgr1HZG3S3bv46wJ8-148" style="edgeStyle=orthogonalEdgeStyle;rounded=0;orthogonalLoop=1;jettySize=auto;html=1;exitX=0;exitY=0.5;exitDx=0;exitDy=0;" edge="1" parent="kHhAgr1HZG3S3bv46wJ8-171" source="kHhAgr1HZG3S3bv46wJ8-147" target="kHhAgr1HZG3S3bv46wJ8-154">
          <mxGeometry relative="1" as="geometry">
            <mxPoint x="92" y="525" as="targetPoint" />
            <Array as="points">
              <mxPoint x="92" y="465" />
              <mxPoint x="92" y="505" />
            </Array>
          </mxGeometry>
        </mxCell>
        <mxCell id="kHhAgr1HZG3S3bv46wJ8-151" value="True" style="edgeLabel;html=1;align=center;verticalAlign=middle;resizable=0;points=[];container=0;" vertex="1" connectable="0" parent="kHhAgr1HZG3S3bv46wJ8-148">
          <mxGeometry x="-0.3707" y="-1" relative="1" as="geometry">
            <mxPoint x="27" as="offset" />
          </mxGeometry>
        </mxCell>
        <mxCell id="kHhAgr1HZG3S3bv46wJ8-156" value="&amp;nbsp;idx = 2&amp;nbsp;" style="edgeLabel;html=1;align=center;verticalAlign=middle;resizable=0;points=[];container=0;" vertex="1" connectable="0" parent="kHhAgr1HZG3S3bv46wJ8-148">
          <mxGeometry x="-0.0653" y="-1" relative="1" as="geometry">
            <mxPoint as="offset" />
          </mxGeometry>
        </mxCell>
        <mxCell id="kHhAgr1HZG3S3bv46wJ8-152" style="edgeStyle=orthogonalEdgeStyle;rounded=0;orthogonalLoop=1;jettySize=auto;html=1;entryX=0.678;entryY=0.007;entryDx=0;entryDy=0;entryPerimeter=0;exitX=1;exitY=0.5;exitDx=0;exitDy=0;" edge="1" parent="kHhAgr1HZG3S3bv46wJ8-171" source="kHhAgr1HZG3S3bv46wJ8-147" target="kHhAgr1HZG3S3bv46wJ8-154">
          <mxGeometry relative="1" as="geometry">
            <mxPoint x="302" y="515" as="targetPoint" />
            <Array as="points">
              <mxPoint x="322" y="465" />
              <mxPoint x="322" y="506" />
            </Array>
          </mxGeometry>
        </mxCell>
        <mxCell id="kHhAgr1HZG3S3bv46wJ8-155" value="&amp;nbsp;False&amp;nbsp;" style="edgeLabel;html=1;align=center;verticalAlign=middle;resizable=0;points=[];container=0;" vertex="1" connectable="0" parent="kHhAgr1HZG3S3bv46wJ8-152">
          <mxGeometry x="-0.6839" relative="1" as="geometry">
            <mxPoint as="offset" />
          </mxGeometry>
        </mxCell>
        <mxCell id="kHhAgr1HZG3S3bv46wJ8-157" value="&amp;nbsp;idx = cache.size()" style="edgeLabel;html=1;align=center;verticalAlign=middle;resizable=0;points=[];container=0;" vertex="1" connectable="0" parent="kHhAgr1HZG3S3bv46wJ8-152">
          <mxGeometry x="-0.0336" relative="1" as="geometry">
            <mxPoint as="offset" />
          </mxGeometry>
        </mxCell>
      </root>
    </mxGraphModel>
  </diagram>
</mxfile>
